<mxfile host="app.diagrams.net" agent="Mozilla/5.0 (Windows NT 10.0; Win64; x64) AppleWebKit/537.36 (KHTML, like Gecko) Chrome/131.0.0.0 Safari/537.36" version="24.9.3">
  <diagram name="Ejercicio 5" id="0">
    <mxGraphModel dx="1120" dy="434" grid="1" gridSize="10" guides="1" tooltips="1" connect="1" arrows="1" fold="1" page="1" pageScale="1" pageWidth="850" pageHeight="1100" math="0" shadow="0">
      <root>
        <mxCell id="0" />
        <mxCell id="1" parent="0" />
        <mxCell id="2" value="" style="shape=rectangle;whiteSpace=wrap;html=1;fillColor=#D9EAD3;strokeColor=#6AA84F;" parent="1" vertex="1">
          <mxGeometry x="600" y="40" width="200" height="200" as="geometry" />
        </mxCell>
        <mxCell id="3" value="PACIENTES" style="text;html=1;stroke=none;fillColor=#E6E6E6;" parent="2" vertex="1">
          <mxGeometry width="200" height="30" as="geometry" />
        </mxCell>
        <mxCell id="4" value="PK Código_Paciente" style="text;html=1;fillColor=#FFFFFF;" parent="2" vertex="1">
          <mxGeometry y="30" width="200" height="30" as="geometry" />
        </mxCell>
        <mxCell id="5" value="Nombre" style="text;html=1;fillColor=#FFFFFF;" parent="2" vertex="1">
          <mxGeometry y="60" width="200" height="30" as="geometry" />
        </mxCell>
        <mxCell id="6" value="Apellidos" style="text;html=1;fillColor=#FFFFFF;" parent="2" vertex="1">
          <mxGeometry y="90" width="200" height="30" as="geometry" />
        </mxCell>
        <mxCell id="7" value="Dirección" style="text;html=1;fillColor=#FFFFFF;" parent="2" vertex="1">
          <mxGeometry y="120" width="200" height="30" as="geometry" />
        </mxCell>
        <mxCell id="8" value="Población" style="text;html=1;fillColor=#FFFFFF;" parent="2" vertex="1">
          <mxGeometry y="150" width="200" height="30" as="geometry" />
        </mxCell>
        <mxCell id="9" value="Provincia" style="text;html=1;fillColor=#FFFFFF;" parent="2" vertex="1">
          <mxGeometry y="180" width="200" height="30" as="geometry" />
        </mxCell>
        <mxCell id="10" value="Código_Postal" style="text;html=1;fillColor=#FFFFFF;" parent="2" vertex="1">
          <mxGeometry y="210" width="200" height="30" as="geometry" />
        </mxCell>
        <mxCell id="11" value="Teléfono" style="text;html=1;fillColor=#FFFFFF;" parent="2" vertex="1">
          <mxGeometry y="240" width="200" height="30" as="geometry" />
        </mxCell>
        <mxCell id="12" value="Fecha_Nacimiento" style="text;html=1;fillColor=#FFFFFF;" parent="2" vertex="1">
          <mxGeometry y="270" width="200" height="30" as="geometry" />
        </mxCell>
        <mxCell id="13" value="" style="shape=rectangle;whiteSpace=wrap;html=1;fillColor=#D9EAD3;strokeColor=#6AA84F;" parent="1" vertex="1">
          <mxGeometry x="50" y="90" width="200" height="150" as="geometry" />
        </mxCell>
        <mxCell id="14" value="MÉDICOS" style="text;html=1;stroke=none;fillColor=#E6E6E6;" parent="13" vertex="1">
          <mxGeometry width="200" height="30" as="geometry" />
        </mxCell>
        <mxCell id="15" value="PK Código_Médico" style="text;html=1;fillColor=#FFFFFF;" parent="13" vertex="1">
          <mxGeometry y="30" width="200" height="30" as="geometry" />
        </mxCell>
        <mxCell id="16" value="Nombre" style="text;html=1;fillColor=#FFFFFF;" parent="13" vertex="1">
          <mxGeometry y="60" width="200" height="30" as="geometry" />
        </mxCell>
        <mxCell id="17" value="Apellidos" style="text;html=1;fillColor=#FFFFFF;" parent="13" vertex="1">
          <mxGeometry y="90" width="200" height="30" as="geometry" />
        </mxCell>
        <mxCell id="18" value="Teléfono" style="text;html=1;fillColor=#FFFFFF;" parent="13" vertex="1">
          <mxGeometry y="120" width="200" height="30" as="geometry" />
        </mxCell>
        <mxCell id="19" value="Especialidad" style="text;html=1;fillColor=#FFFFFF;" parent="13" vertex="1">
          <mxGeometry y="150" width="200" height="30" as="geometry" />
        </mxCell>
        <mxCell id="20" value="" style="shape=rectangle;whiteSpace=wrap;html=1;fillColor=#D9EAD3;strokeColor=#6AA84F;" parent="1" vertex="1">
          <mxGeometry x="325" y="80" width="200" height="180" as="geometry" />
        </mxCell>
        <mxCell id="21" value="INGRESOS" style="text;html=1;stroke=none;fillColor=#E6E6E6;" parent="20" vertex="1">
          <mxGeometry width="200" height="30" as="geometry" />
        </mxCell>
        <mxCell id="22" value="PK Código_Ingreso" style="text;html=1;fillColor=#FFFFFF;" parent="20" vertex="1">
          <mxGeometry y="30" width="200" height="30" as="geometry" />
        </mxCell>
        <mxCell id="23" value="FK Código_Paciente" style="text;html=1;fillColor=#FFFFFF;" parent="20" vertex="1">
          <mxGeometry y="60" width="200" height="30" as="geometry" />
        </mxCell>
        <mxCell id="24" value="FK Código_Médico" style="text;html=1;fillColor=#FFFFFF;" parent="20" vertex="1">
          <mxGeometry y="90" width="200" height="30" as="geometry" />
        </mxCell>
        <mxCell id="25" value="Número_Habitación" style="text;html=1;fillColor=#FFFFFF;" parent="20" vertex="1">
          <mxGeometry y="120" width="200" height="30" as="geometry" />
        </mxCell>
        <mxCell id="26" value="Número_Cama" style="text;html=1;fillColor=#FFFFFF;" parent="20" vertex="1">
          <mxGeometry y="150" width="200" height="30" as="geometry" />
        </mxCell>
        <mxCell id="27" value="Fecha_Ingreso" style="text;html=1;fillColor=#FFFFFF;" parent="20" vertex="1">
          <mxGeometry y="180" width="200" height="30" as="geometry" />
        </mxCell>
        <mxCell id="sl-brJKT2IFVhPOmYmwU-28" style="edgeStyle=orthogonalEdgeStyle;rounded=0;orthogonalLoop=1;jettySize=auto;html=1;entryX=1;entryY=0.25;entryDx=0;entryDy=0;" edge="1" parent="1" source="7" target="24">
          <mxGeometry relative="1" as="geometry">
            <Array as="points">
              <mxPoint x="563" y="178" />
            </Array>
          </mxGeometry>
        </mxCell>
        <mxCell id="sl-brJKT2IFVhPOmYmwU-30" style="edgeStyle=orthogonalEdgeStyle;rounded=0;orthogonalLoop=1;jettySize=auto;html=1;entryX=0;entryY=0.75;entryDx=0;entryDy=0;" edge="1" parent="1" source="17" target="24">
          <mxGeometry relative="1" as="geometry">
            <Array as="points">
              <mxPoint x="288" y="193" />
            </Array>
          </mxGeometry>
        </mxCell>
      </root>
    </mxGraphModel>
  </diagram>
</mxfile>
